<svg id="Layer_1" data-name="Layer 1" xmlns="http://www.w3.org/2000/svg" viewBox="0 0 80 80"><defs><style>.cls-1{fill:#191919;}.cls-2{fill:#262626;}</style></defs><title>bg-tile</title><rect class="cls-1" x="40" y="42" width="1" height="4"/><rect class="cls-1" x="40" y="35" width="1" height="4"/><rect class="cls-1" x="35" y="40" width="4" height="1"/><rect class="cls-1" x="42" y="40" width="4" height="1"/><rect class="cls-2" x="12" y="11" width="1" height="1"/><rect class="cls-2" x="12" y="25.25" width="1" height="1"/><rect class="cls-2" x="12" y="39.5" width="1" height="1"/><rect class="cls-2" x="12" y="53.75" width="1" height="1"/><rect class="cls-2" x="12" y="68" width="1" height="1"/><rect class="cls-2" x="25.75" y="11" width="1" height="1"/><rect class="cls-2" x="25.75" y="25.25" width="1" height="1"/><rect class="cls-2" x="25.75" y="39.5" width="1" height="1"/><rect class="cls-2" x="25.75" y="53.75" width="1" height="1"/><rect class="cls-2" x="25.75" y="68" width="1" height="1"/><rect class="cls-2" x="39.5" y="11" width="1" height="1"/><rect class="cls-2" x="39.85" y="25.1" width="1" height="1"/><rect class="cls-2" x="39.5" y="53.75" width="1" height="1"/><rect class="cls-2" x="39.5" y="68" width="1" height="1"/><rect class="cls-2" x="67" y="11" width="1" height="1"/><rect class="cls-2" x="67" y="25.25" width="1" height="1"/><rect class="cls-2" x="67" y="39.5" width="1" height="1"/><rect class="cls-2" x="67" y="53.75" width="1" height="1"/><rect class="cls-2" x="67" y="68" width="1" height="1"/><rect class="cls-2" x="53.25" y="11" width="1" height="1"/><rect class="cls-2" x="53.25" y="25.25" width="1" height="1"/><rect class="cls-2" x="53.25" y="39.5" width="1" height="1"/><rect class="cls-2" x="53.25" y="53.75" width="1" height="1"/><rect class="cls-2" x="53.25" y="68" width="1" height="1"/></svg>