<svg xmlns="http://www.w3.org/2000/svg" viewBox="0 0 2588.93 298.52"><defs><style>.cls-1{isolation:isolate;}.cls-2{fill:#ff6b00;fill-rule:evenodd;}.cls-3{fill:#fff;}</style></defs><title>Artboard 1</title><g id="IV" class="cls-1"><path class="cls-2" d="M2404.65,69.8V211L2370,195.57V159.75l5.05-11.9v-42L2370,94V69.8Zm34.55,0h-29.54V213.58L2439.2,227ZM2513.4,94V69.8h-34.65V211.31l34.65-15.74V159.75l-5-11.9v-42ZM2473.74,69.8H2444.2V227l29.54-13.41Z"/></g><g id="COD_BLACK_OPS" class="cls-1"><path class="cls-3" d="M2318.5,171.32v9.79c0,12.22-2.34,20.56-7.19,25.46s-13.15,7.32-25.3,7.32h-61.68c-3.78,0-7.55.09-11.33-.1-7.24-.39-15.12-1.92-20.42-7.25-4.93-4.94-7.33-13.26-7.33-25.43l29.1-6.69v12.47H2290V163.1h-67.58c-12.24,0-20.56-2.43-25.44-7.4s-7.17-13.23-7.17-25.39v-10c0-12.15,2.35-20.45,7.17-25.38s13.19-7.4,25.44-7.4h62c12,0,20.21,2.34,25.25,7.16s7.58,12.6,7.58,18v6.54L2289.52,127V114.15H2218.2v21.3H2286c12,0,20.21,2.37,25.15,7.27,4.33,4.3,6.71,11.21,7.24,21.05C2318.51,163.74,2318.48,168.38,2318.5,171.32ZM1198.25,151.75c4.32,4.83,6.51,11.33,6.51,19.31v14.75c0,11.83-5.61,18.22-10.32,21.52-6.34,4.41-15.32,6.56-27.46,6.56h-92.37V87.48h99.32c10.27,0,17.67,2.21,22.62,6.75s7.55,11.7,7.55,21.12v13.43c0,7.69-2.13,13.66-6.31,17.77a20.55,20.55,0,0,1-2.73,2.23A23,23,0,0,1,1198.25,151.75Zm-93.13-16.86h61.65c4.5,0,5.61-.89,5.63-.89.2-.2.75-1.26.75-3.91V118.51c0-2.92-.63-3.75-.66-3.78s-1.27-.8-5.72-.8h-61.65Zm69,34.42c0-5.55-1.21-7-1.35-7.14s-1.3-1.26-6-1.26h-61.65v26.2h61.65c3.91,0,5.67-.75,6.08-1.2.13-.13,1.29-1.52,1.29-7ZM1251,87.48h-30.51V213.89h118.6v-27H1251Zm194.24,0L1516,213.89H1482l-14.86-28.4h-72l-14.86,28.4H1348.4L1418,87.48Zm8.09,72.32-22.23-41.87L1409,159.8ZM1650,120.26c0-12.24-2.35-20.56-7.2-25.46s-13.17-7.32-25.4-7.32h-65.18c-12.22,0-20.55,2.41-25.5,7.36s-7.31,13.25-7.31,25.42v60.85c0,12.17,2.39,20.49,7.31,25.43s13.28,7.35,25.5,7.35h65.18c12.23,0,20.54-2.39,25.4-7.31s7.2-13.23,7.2-25.47l-30.52-6.34v12.12h-69.67V114.15h69.67v11.76Zm158.85-32.78h-48.47L1695.05,132V87.48h-30.52V213.89h30.52V166.8l70.53,47.09h52.81l-102.16-65.71Zm213,7.37c4.88,4.94,7.25,13.24,7.25,25.41v60.85c0,12.25-2.38,20.59-7.26,25.49s-13.21,7.29-25.34,7.29H1916c-12.32,0-20.69-2.43-25.59-7.45s-7.23-13.25-7.23-25.33V120.26c0-12.07,2.36-20.36,7.23-25.33s13.27-7.45,25.59-7.45h80.48C2008.64,87.48,2016.93,89.89,2021.84,94.85Zm-22.94,19.3h-85.3v72.74h85.3Zm170.76-19.92c5,4.59,7.54,11.7,7.54,21.12v25.78c0,9.35-2.53,16.41-7.54,21s-12.36,6.74-22.63,6.74h-68.81v45H2047.7V87.48H2147C2157.3,87.48,2164.7,89.69,2169.66,94.23ZM2146.46,120c0-4.31-1-5.45-1.11-5.57-.37-.36-2.09-1.08-5.92-1.08h-61.21v29.37h61.21c3.83,0,5.55-.72,5.93-1.09.1-.11,1.1-1.26,1.1-5.56ZM448.16,196.25h27.91v31.63H402.25V69.81h45.91ZM982.67,69.71l-29.55,89.91L933.83,99.71q2.91-13.9,6.77-30ZM187.54,91.39q4.16,10.47,4.15,32.56v15h-46V111.51q0-12-1.47-14.92t-6.5-3c-3.8,0-6.2,1.21-7.22,3.61s-1.53,7.6-1.53,15.59V186.1q0,11.51,1.53,15c1,2.33,3.32,3.51,6.89,3.51s5.66-1.18,6.72-3.52,1.58-7.85,1.58-16.51V164.76h46v6.14q0,24.51-3.88,34.75t-17.16,18q-13.29,7.71-32.75,7.71-20.22,0-33.34-6.53T87.18,206.71Q82.92,195.16,82.91,172v-46.1q0-17,1.31-25.58A34,34,0,0,1,92,83.87q6.51-7.89,18-12.42t26.51-4.53q20.34,0,33.57,7T187.54,91.39Zm304.92,26.83q.36,3.38.37,11.77v9.31c0,5.46-.12,9.34-.36,11.61a13.65,13.65,0,0,1-2.23,6.24,12.22,12.22,0,0,1-5.06,4.33,17.11,17.11,0,0,1-7.43,1.52,17.64,17.64,0,0,1-7.23-1.43,12.18,12.18,0,0,1-5.15-4.29,13.53,13.53,0,0,1-2.32-6.22q-.37-3.36-.38-11.76V130c0-5.47.13-9.34.36-11.61a13.68,13.68,0,0,1,2.23-6.24,12.21,12.21,0,0,1,5.06-4.33,17.17,17.17,0,0,1,7.43-1.52,17.64,17.64,0,0,1,7.23,1.43,12,12,0,0,1,5.15,4.29A13.4,13.4,0,0,1,492.46,118.22Zm-12.67,3.2a18.69,18.69,0,0,0-.38-4.86,1.54,1.54,0,0,0-1.6-1.06,1.74,1.74,0,0,0-1.56.86c-.36.57-.54,2.26-.54,5.06v25.41a26.8,26.8,0,0,0,.36,5.85,1.55,1.55,0,0,0,1.65,1.11,1.61,1.61,0,0,0,1.7-1.29,28.89,28.89,0,0,0,.37-6.08ZM363.32,196.25h27.92v31.63H317.41V69.81h45.91ZM283.18,69.45,309.5,227.88h-43l-3.58-29.59H247.32l2.94-26.48h9.43l-8.23-68.07-15,124.14H193.16L216.64,69.45Zm213.82,38h20.83v10.88H509.3v10.32h7.6V139h-7.6v22.85H497Zm434,6.63,18.37,57.05-.07.22V229H906.85V171.34L874.64,69.71h42.05l11.79,36.61,2.48,7.83S931,114.1,931,114.07ZM638.14,95.49q1.54,7.67,1.53,30.13V181q0,21.3-2.24,28.47a21.22,21.22,0,0,1-7.82,11.24,34.31,34.31,0,0,1-13.78,5.66Q607.61,228,591.1,228H533V69.85h34.47q33.36,0,45.12,2.73t17.89,9A27.35,27.35,0,0,1,638.14,95.49Zm-44.52,21.05q0-10.76-.76-13.78a6.64,6.64,0,0,0-3.5-4.44c-1.83-.94-5.26-1.42-10.29-1.42v104q10,0,12.26-3.56T593.62,178ZM765.69,69.71H866.4V101.4H839V228.06H793V101.4H765.69Zm-55.64.14h45.74V175.48q0,18-1.3,25.23t-7.72,14.94a39.87,39.87,0,0,1-16.89,11.62q-10.49,4-24.72,3.95-15.75,0-27.81-4.68t-18-12.2a32,32,0,0,1-7.06-15.87q-1.08-8.34-1.09-35.1V69.85H696.9V188.36q0,10.35,1.26,13.24c.82,1.91,2.51,2.87,5,2.87,2.9,0,4.77-1.05,5.6-3.17s1.25-7.11,1.25-15ZM966.36,229.27h-1.18a5.1,5.1,0,0,1-.48-1.8,1.32,1.32,0,0,0-1.52-1.23h-.78v3h-1.13v-7.05a11.94,11.94,0,0,1,2-.17,3.69,3.69,0,0,1,2.19.53,1.7,1.7,0,0,1,.65,1.46,1.77,1.77,0,0,1-1.38,1.72v.05c.62.12,1,.68,1.18,1.72A5.81,5.81,0,0,0,966.36,229.27Zm-1.43-5.11c0-.62-.45-1.24-1.73-1.24a5,5,0,0,0-.8.06v2.39h.8C964.14,225.37,964.93,225,964.93,224.16Zm4.89,1.43a6.26,6.26,0,1,1-6.24-6.32h0A6.24,6.24,0,0,1,969.82,225.59Zm-1.15,0a5.2,5.2,0,0,0-5.07-5.37h0a5.36,5.36,0,1,0,5.09,5.37Z"/></g></svg>