<svg id="Group_1_copy" data-name="Group 1 copy" xmlns="http://www.w3.org/2000/svg" width="29" height="22" viewBox="0 0 29 22">
  <metadata><?xpacket begin="﻿" id="W5M0MpCehiHzreSzNTczkc9d"?>
<x:xmpmeta xmlns:x="adobe:ns:meta/" x:xmptk="Adobe XMP Core 5.6-c140 79.160451, 2017/05/06-01:08:21        ">
   <rdf:RDF xmlns:rdf="http://www.w3.org/1999/02/22-rdf-syntax-ns#">
      <rdf:Description rdf:about=""/>
   </rdf:RDF>
</x:xmpmeta>
                                                                                                    
                                                                                                    
                                                                                                    
                                                                                                    
                                                                                                    
                                                                                                    
                                                                                                    
                                                                                                    
                                                                                                    
                                                                                                    
                                                                                                    
                                                                                                    
                                                                                                    
                                                                                                    
                                                                                                    
                                                                                                    
                                                                                                    
                                                                                                    
                                                                                                    
                                                                                                    
                           
<?xpacket end="w"?></metadata>
<defs>
    <style>
      .cls-1, .cls-2, .cls-3 {
        fill: #fff;
      }

      .cls-1 {
        opacity: 0.03;
      }

      .cls-2, .cls-3 {
        opacity: 0.05;
      }

      .cls-3 {
        fill-rule: evenodd;
      }
    </style>
  </defs>
  <rect class="cls-1" y="11" width="1" height="23"/>
  <rect id="Rectangle_12_copy_3" data-name="Rectangle 12 copy 3" class="cls-2" x="3" y="14" width="1" height="1"/>
  <rect id="Rectangle_12_copy_4" data-name="Rectangle 12 copy 4" class="cls-2" x="9" y="14" width="1" height="1"/>
  <rect id="Rectangle_12_copy_5" data-name="Rectangle 12 copy 5" class="cls-2" x="14" y="14" width="1" height="1"/>
  <rect id="Rectangle_12_copy_7" data-name="Rectangle 12 copy 7" class="cls-2" x="19" y="14" width="1" height="1"/>
  <rect id="Rectangle_12_copy_6" data-name="Rectangle 12 copy 6" class="cls-2" x="25" y="14" width="1" height="1"/>
  <rect id="Rectangle_12_copy_8" data-name="Rectangle 12 copy 8" class="cls-2" x="3" y="18" width="1" height="1"/>
  <rect id="Rectangle_12_copy_8-2" data-name="Rectangle 12 copy 8" class="cls-2" x="9" y="18" width="1" height="1"/>
  <rect id="Rectangle_12_copy_8-3" data-name="Rectangle 12 copy 8" class="cls-2" x="14" y="18" width="1" height="1"/>
  <rect id="Rectangle_12_copy_8-4" data-name="Rectangle 12 copy 8" class="cls-2" x="19" y="18" width="1" height="1"/>
  <rect id="Rectangle_12_copy_8-5" data-name="Rectangle 12 copy 8" class="cls-2" x="25" y="18" width="1" height="1"/>
  <rect id="Rectangle_12_copy_9" data-name="Rectangle 12 copy 9" class="cls-2" x="3" y="22" width="1" height="1"/>
  <rect id="Rectangle_12_copy_9-2" data-name="Rectangle 12 copy 9" class="cls-2" x="9" y="22" width="1" height="1"/>
  <rect id="Rectangle_12_copy_9-3" data-name="Rectangle 12 copy 9" class="cls-2" x="14" y="22" width="1" height="1"/>
  <rect id="Rectangle_12_copy_9-4" data-name="Rectangle 12 copy 9" class="cls-2" x="19" y="22" width="1" height="1"/>
  <rect id="Rectangle_12_copy_9-5" data-name="Rectangle 12 copy 9" class="cls-2" x="25" y="22" width="1" height="1"/>
  <rect id="Rectangle_12_copy_10" data-name="Rectangle 12 copy 10" class="cls-2" x="3" y="26" width="1" height="1"/>
  <rect id="Rectangle_12_copy_10-2" data-name="Rectangle 12 copy 10" class="cls-2" x="9" y="26" width="1" height="1"/>
  <rect id="Rectangle_12_copy_10-3" data-name="Rectangle 12 copy 10" class="cls-2" x="14" y="26" width="1" height="1"/>
  <rect id="Rectangle_12_copy_10-4" data-name="Rectangle 12 copy 10" class="cls-2" x="19" y="26" width="1" height="1"/>
  <rect id="Rectangle_12_copy_10-5" data-name="Rectangle 12 copy 10" class="cls-2" x="25" y="26" width="1" height="1"/>
  <rect id="Rectangle_12_copy_11" data-name="Rectangle 12 copy 11" class="cls-2" x="3" y="30" width="1" height="1"/>
  <rect id="Rectangle_12_copy_11-2" data-name="Rectangle 12 copy 11" class="cls-2" x="9" y="30" width="1" height="1"/>
  <rect id="Rectangle_12_copy_11-3" data-name="Rectangle 12 copy 11" class="cls-2" x="14" y="30" width="1" height="1"/>
  <rect id="Rectangle_12_copy_11-4" data-name="Rectangle 12 copy 11" class="cls-2" x="19" y="30" width="1" height="1"/>
  <rect id="Rectangle_12_copy_11-5" data-name="Rectangle 12 copy 11" class="cls-2" x="25" y="30" width="1" height="1"/>
  <path class="cls-3" d="M28,11h1v3H28V11Zm-2,0h2v1H26V11Z"/>
  <path id="Rectangle_14_copy" data-name="Rectangle 14 copy" class="cls-3" d="M26,33h3v1H26V33Zm2-2h1v2H28V31Z"/>
  <path id="Rectangle_14_copy_2" data-name="Rectangle 14 copy 2" class="cls-3" d="M0,31H1v3H0V31Zm1,2H3v1H1V33Z"/>
  <path id="Rectangle_14_copy_3" data-name="Rectangle 14 copy 3" class="cls-3" d="M0,11H3v1H0V11Zm0,1H1v2H0V12Z"/>
  <rect id="Rectangle_12_copy_13" data-name="Rectangle 12 copy 13" class="cls-1" x="-2" y="11" width="31" height="1"/>
  <rect id="Rectangle_12_copy" data-name="Rectangle 12 copy" class="cls-1" x="28" y="11" width="1" height="23"/>
  <rect id="Rectangle_12_copy_12" data-name="Rectangle 12 copy 12" class="cls-2" x="-2" y="33" width="31" height="1"/>
  <rect class="cls-1" y="-11" width="1" height="23"/>
  <rect id="Rectangle_12_copy_3-2" data-name="Rectangle 12 copy 3" class="cls-2" x="3" y="-8" width="1" height="1"/>
  <rect id="Rectangle_12_copy_4-2" data-name="Rectangle 12 copy 4" class="cls-2" x="9" y="-8" width="1" height="1"/>
  <rect id="Rectangle_12_copy_5-2" data-name="Rectangle 12 copy 5" class="cls-2" x="14" y="-8" width="1" height="1"/>
  <rect id="Rectangle_12_copy_7-2" data-name="Rectangle 12 copy 7" class="cls-2" x="19" y="-8" width="1" height="1"/>
  <rect id="Rectangle_12_copy_6-2" data-name="Rectangle 12 copy 6" class="cls-2" x="25" y="-8" width="1" height="1"/>
  <rect id="Rectangle_12_copy_8-6" data-name="Rectangle 12 copy 8" class="cls-2" x="3" y="-4" width="1" height="1"/>
  <rect id="Rectangle_12_copy_8-7" data-name="Rectangle 12 copy 8" class="cls-2" x="9" y="-4" width="1" height="1"/>
  <rect id="Rectangle_12_copy_8-8" data-name="Rectangle 12 copy 8" class="cls-2" x="14" y="-4" width="1" height="1"/>
  <rect id="Rectangle_12_copy_8-9" data-name="Rectangle 12 copy 8" class="cls-2" x="19" y="-4" width="1" height="1"/>
  <rect id="Rectangle_12_copy_8-10" data-name="Rectangle 12 copy 8" class="cls-2" x="25" y="-4" width="1" height="1"/>
  <rect id="Rectangle_12_copy_9-6" data-name="Rectangle 12 copy 9" class="cls-2" x="3" width="1" height="1"/>
  <rect id="Rectangle_12_copy_9-7" data-name="Rectangle 12 copy 9" class="cls-2" x="9" width="1" height="1"/>
  <rect id="Rectangle_12_copy_9-8" data-name="Rectangle 12 copy 9" class="cls-2" x="14" width="1" height="1"/>
  <rect id="Rectangle_12_copy_9-9" data-name="Rectangle 12 copy 9" class="cls-2" x="19" width="1" height="1"/>
  <rect id="Rectangle_12_copy_9-10" data-name="Rectangle 12 copy 9" class="cls-2" x="25" width="1" height="1"/>
  <rect id="Rectangle_12_copy_10-6" data-name="Rectangle 12 copy 10" class="cls-2" x="3" y="4" width="1" height="1"/>
  <rect id="Rectangle_12_copy_10-7" data-name="Rectangle 12 copy 10" class="cls-2" x="9" y="4" width="1" height="1"/>
  <rect id="Rectangle_12_copy_10-8" data-name="Rectangle 12 copy 10" class="cls-2" x="14" y="4" width="1" height="1"/>
  <rect id="Rectangle_12_copy_10-9" data-name="Rectangle 12 copy 10" class="cls-2" x="19" y="4" width="1" height="1"/>
  <rect id="Rectangle_12_copy_10-10" data-name="Rectangle 12 copy 10" class="cls-2" x="25" y="4" width="1" height="1"/>
  <rect id="Rectangle_12_copy_11-6" data-name="Rectangle 12 copy 11" class="cls-2" x="3" y="8" width="1" height="1"/>
  <rect id="Rectangle_12_copy_11-7" data-name="Rectangle 12 copy 11" class="cls-2" x="9" y="8" width="1" height="1"/>
  <rect id="Rectangle_12_copy_11-8" data-name="Rectangle 12 copy 11" class="cls-2" x="14" y="8" width="1" height="1"/>
  <rect id="Rectangle_12_copy_11-9" data-name="Rectangle 12 copy 11" class="cls-2" x="19" y="8" width="1" height="1"/>
  <rect id="Rectangle_12_copy_11-10" data-name="Rectangle 12 copy 11" class="cls-2" x="25" y="8" width="1" height="1"/>
  <path class="cls-3" d="M28-11h1v3H28v-3Zm-2,0h2v1H26v-1Z"/>
  <path id="Rectangle_14_copy-2" data-name="Rectangle 14 copy" class="cls-3" d="M26,11h3v1H26V11Zm2-2h1v2H28V9Z"/>
  <path id="Rectangle_14_copy_2-2" data-name="Rectangle 14 copy 2" class="cls-3" d="M0,9H1v3H0V9Zm1,2H3v1H1V11Z"/>
  <path id="Rectangle_14_copy_3-2" data-name="Rectangle 14 copy 3" class="cls-3" d="M0-11H3v1H0v-1Zm0,1H1v2H0v-2Z"/>
  <rect id="Rectangle_12_copy_13-2" data-name="Rectangle 12 copy 13" class="cls-2" x="-2" y="-11" width="31" height="1"/>
  <rect id="Rectangle_12_copy-2" data-name="Rectangle 12 copy" class="cls-1" x="28" y="-11" width="1" height="23"/>
</svg>
